<?xml version="1.0" encoding="utf-8"?>
<!-- Generator: Adobe Illustrator 24.0.0, SVG Export Plug-In . SVG Version: 6.00 Build 0)  -->
<svg version="1.1" id="Vectorportal.com" xmlns="http://www.w3.org/2000/svg" xmlns:xlink="http://www.w3.org/1999/xlink" x="0px"
	 y="0px" viewBox="0 0 809 809" style="enable-background:new 0 0 809 809;" xml:space="preserve">
<style type="text/css">
	.st0{fill-rule:evenodd;clip-rule:evenodd;fill:#6D6E6F;}
	.st1{fill-rule:evenodd;clip-rule:evenodd;fill:#595A5C;}
	.st2{fill-rule:evenodd;clip-rule:evenodd;fill:#A09E9B;}
	.st3{fill-rule:evenodd;clip-rule:evenodd;fill:#B8B6B5;}
	.st4{fill-rule:evenodd;clip-rule:evenodd;fill:#333230;}
	.st5{fill-rule:evenodd;clip-rule:evenodd;fill:#242323;}
	.st6{fill-rule:evenodd;clip-rule:evenodd;fill:#989998;}
	.st7{fill-rule:evenodd;clip-rule:evenodd;fill:#404044;}
</style>
<g>
	<path class="st0" d="M166.4,0h476.1C734.1,0,809,74.9,809,166.5v476.1c0,91.5-74.9,166.4-166.5,166.4H166.4
		C74.9,809,0,734.1,0,642.5V166.5C0,74.9,74.9,0,166.4,0z"/>
	<path class="st1" d="M204.6,0h374.7L204.1,809h-37.7C74.9,809,0,734.1,0,642.5V441.2L204.6,0L204.6,0z M637.1,0L261.9,809h251.7
		L809,172.1v-5.6C809,74.9,734.1,0,642.5,0H637.1z"/>
	<path class="st1" d="M194.7,61.5h419.6c73.2,0,133.2,59.9,133.2,133.2v419.6c0,73.2-59.9,133.2-133.2,133.2H194.7
		c-73.2,0-133.2-59.9-133.2-133.2V194.7C61.5,121.5,121.5,61.5,194.7,61.5z"/>
	<path class="st2" d="M194.7,78.6h419.6c63.9,0,116.1,52.2,116.1,116.1v419.6c0,63.9-52.2,116.1-116.1,116.1H194.7
		c-63.9,0-116.1-52.2-116.1-116.1V194.7C78.6,130.9,130.9,78.6,194.7,78.6z"/>
	<path class="st3" d="M313.3,78.6h270.3L281.3,730.4h-86.6c-63.9,0-116.1-52.2-116.1-116.1v-29.6L313.3,78.6L313.3,78.6z M625,79.1
		L323,730.4h181.5l225.9-487v-48.6C730.4,134.5,683.9,84.6,625,79.1z"/>
	<g>
		
			<ellipse transform="matrix(0.7071 -0.7071 0.7071 0.7071 -282.2721 462.9433)" class="st1" cx="417.7" cy="572.2" rx="139.5" ry="139.5"/>
		
			<ellipse transform="matrix(0.9978 -6.677957e-02 6.677957e-02 0.9978 -37.2792 29.1702)" class="st4" cx="417.7" cy="572.2" rx="103.7" ry="103.7"/>
		<path class="st5" d="M417.7,656.9c46.6,0,84.7-38,84.7-84.7c0-46.6-38-84.7-84.7-84.7s-84.7,38-84.7,84.7
			C333,618.8,371,656.9,417.7,656.9z"/>
		<circle class="st6" cx="417.7" cy="572.2" r="71.6"/>
		<path class="st6" d="M417.7,439c6.2,0,11.2,5,11.2,11.2c0,6.2-5,11.2-11.2,11.2s-11.2-5-11.2-11.2C406.5,444,411.5,439,417.7,439
			L417.7,439z M284.5,572.2c0-6.2,5-11.2,11.2-11.2c6.2,0,11.2,5,11.2,11.2s-5,11.2-11.2,11.2C289.5,583.4,284.5,578.4,284.5,572.2
			L284.5,572.2z M550.9,572.2c0,6.2-5,11.2-11.2,11.2c-6.2,0-11.2-5-11.2-11.2s5-11.2,11.2-11.2C545.9,561,550.9,566,550.9,572.2
			L550.9,572.2z M417.7,705.4c-6.2,0-11.2-5-11.2-11.2s5-11.2,11.2-11.2s11.2,5,11.2,11.2S423.9,705.4,417.7,705.4z"/>
		<path class="st6" d="M323.5,478c4.4-4.4,11.5-4.4,15.9,0c4.4,4.4,4.4,11.5,0,15.9c-4.4,4.4-11.5,4.4-15.9,0
			C319.1,489.5,319.1,482.4,323.5,478L323.5,478z M323.5,666.4c-4.4-4.4-4.4-11.5,0-15.9c4.4-4.4,11.5-4.4,15.9,0
			c4.4,4.4,4.4,11.5,0,15.9C335,670.8,327.9,670.8,323.5,666.4L323.5,666.4z M511.9,478c4.4,4.4,4.4,11.5,0,15.9
			c-4.4,4.4-11.5,4.4-15.9,0c-4.4-4.4-4.4-11.5,0-15.9C500.4,473.6,507.5,473.6,511.9,478L511.9,478z M511.9,666.4
			c-4.4,4.4-11.5,4.4-15.9,0c-4.4-4.4-4.4-11.5,0-15.9c4.4-4.4,11.5-4.4,15.9,0C516.2,654.9,516.2,662,511.9,666.4z"/>
	</g>
	<path class="st7" d="M703.3,490.5h67.8v106.3h-67.8V490.5L703.3,490.5z M703.3,212.1h67.8v106.3h-67.8V212.1z"/>
</g>
</svg>
