<?xml version="1.0" encoding="utf-8"?>
<!-- Generator: Adobe Illustrator 24.0.0, SVG Export Plug-In . SVG Version: 6.00 Build 0)  -->
<svg version="1.1" id="Vectorportal.com" xmlns="http://www.w3.org/2000/svg" xmlns:xlink="http://www.w3.org/1999/xlink" x="0px"
	 y="0px" viewBox="0 0 809 809" style="enable-background:new 0 0 809 809;" xml:space="preserve">
<style type="text/css">
	.st0{fill-rule:evenodd;clip-rule:evenodd;fill:#6D6E6F;}
	.st1{fill-rule:evenodd;clip-rule:evenodd;fill:#595A5C;}
	.st2{fill-rule:evenodd;clip-rule:evenodd;fill:#A09E9B;}
	.st3{fill-rule:evenodd;clip-rule:evenodd;fill:#B8B6B5;}
	.st4{fill-rule:evenodd;clip-rule:evenodd;fill:#404044;}
</style>
<g>
	<path class="st0" d="M166.4,0h476.1C734.1,0,809,74.9,809,166.5v476.1c0,91.5-74.9,166.4-166.5,166.4H166.4
		C74.9,809,0,734.1,0,642.5V166.5C0,74.9,74.9,0,166.4,0z"/>
	<path class="st1" d="M204.6,0h374.7L204.1,809h-37.7C74.9,809,0,734.1,0,642.5V441.2L204.6,0L204.6,0z M637.1,0L261.9,809h251.7
		L809,172.1v-5.6C809,74.9,734.1,0,642.5,0H637.1z"/>
	<path class="st1" d="M194.7,61.5h419.6c73.2,0,133.2,59.9,133.2,133.2v419.6c0,73.2-59.9,133.2-133.2,133.2H194.7
		c-73.2,0-133.2-59.9-133.2-133.2V194.7C61.5,121.5,121.5,61.5,194.7,61.5z"/>
	<path class="st2" d="M194.7,78.6h419.6c63.9,0,116.1,52.2,116.1,116.1v419.6c0,63.9-52.2,116.1-116.1,116.1H194.7
		c-63.9,0-116.1-52.2-116.1-116.1V194.7C78.6,130.9,130.9,78.6,194.7,78.6z"/>
	<path class="st3" d="M313.3,78.6h270.3L281.3,730.4h-86.6c-63.9,0-116.1-52.2-116.1-116.1v-29.6L313.3,78.6L313.3,78.6z M625,79.1
		L323,730.4h181.5l225.9-487v-48.6C730.4,134.5,683.9,84.6,625,79.1z"/>
	<path class="st4" d="M703.3,490.5h67.8v106.3h-67.8V490.5L703.3,490.5z M703.3,212.1h67.8v106.3h-67.8V212.1z"/>
</g>
</svg>
